PathFileType	3	(X/Y/Z)	RCH0000002 BBF 08.c3d
DataRate	CameraRate	NumFrames	NumMarkers	Units	OrigDataRate	OrigDataStartFrame	OrigNumFrames
100.0	100.0	9	23	mm	100.0	48	516
Frame#	Time	MAN			LASI			RASI			LPAT			LKNE			LANK			LMED			LTOE			RKNE			RANK			RMED			RHEE			RTOE			LHEE			RPAT			RPSI			T2			LPSI			T10			RTHI			LTHI			RTIB			LTIB			
		X1	Y1	Z1	X2	Y2	Z2	X3	Y3	Z3	X4	Y4	Z4	X5	Y5	Z5	X6	Y6	Z6	X7	Y7	Z7	X8	Y8	Z8	X9	Y9	Z9	X10	Y10	Z10	X11	Y11	Z11	X12	Y12	Z12	X13	Y13	Z13	X14	Y14	Z14	X15	Y15	Z15	X16	Y16	Z16	X17	Y17	Z17	X18	Y18	Z18	X19	Y19	Z19	X20	Y20	Z20	X21	Y21	Z21	X22	Y22	Z22	X23	Y23	Z23	

48	0.470	-2396.73220	76.80501	930.44646	-2442.88379	166.94326	632.35837	-2389.49005	0.27208	629.64145	-2470.98663	116.29776	342.16129	-2536.12425	166.57740	317.73480	-2702.84688	150.27332	97.10416	-2687.18326	83.44221	113.94653	-2658.82293	117.07424	71.21262	-2332.70475	35.02209	334.09883	-2385.64189	21.57931	73.32465	-2406.22775	88.54502	82.64258	-2434.93943	44.98042	103.89218	-2345.75587	63.92831	67.63005	-2720.38929	111.01839	145.44599	-2303.45698	91.74138	384.25637	-2516.07332	12.26643	671.71548	-2526.23277	55.36990	966.36519	-2535.84258	79.66820	674.22108	-2516.18838	52.24068	772.13696	-2340.01827	-48.43893	435.73069	-2521.29723	238.76170	440.51794	-2346.28333	-34.06544	227.65203	-2614.14952	223.18195	224.15369	
49	0.480	-2387.10509	77.46029	930.88167	-2431.82981	166.49693	629.67206	-2380.14995	-0.60125	632.31511	-2453.38977	117.21051	339.62790	-2518.49543	166.81947	314.84671	-2689.69314	151.39969	100.15394	-2674.81919	84.35898	116.30541	-2648.44885	117.18118	72.08801	-2329.69058	31.90678	334.45804	-2384.44137	19.32413	72.85996	-2405.89068	85.94447	82.94438	-2433.75244	41.83726	103.85510	-2345.07312	62.17864	67.41039	-2705.43697	112.76900	148.97362	-2300.53705	89.09492	383.70700	-2506.47359	14.47801	674.20122	-2517.00899	56.68614	965.92357	-2525.63247	82.03144	673.89641	-2506.07489	55.69422	771.91087	-2333.36792	-50.73942	436.70108	-2507.06700	238.46061	438.12415	-2342.82973	-36.96498	226.40761	-2596.80520	223.85828	223.37299	
50	0.490	-2377.55575	78.14650	931.41561	-2420.82005	165.99107	627.18057	-2370.90484	-1.54118	634.98804	-2435.97158	118.04351	337.36937	-2501.01796	167.03390	312.22148	-2676.49137	152.58242	103.21740	-2662.34444	85.33151	118.65451	-2637.87090	117.44005	73.05663	-2326.85977	28.68940	334.82031	-2383.26966	17.08665	72.40028	-2405.54495	83.37270	83.26169	-2432.61239	38.73031	103.81535	-2344.39358	60.43874	67.20340	-2690.51265	114.50923	152.45196	-2297.71581	86.30532	383.14759	-2496.92773	16.57847	676.72676	-2507.84913	58.06053	965.58802	-2515.45856	84.28173	673.72190	-2496.02224	59.04926	771.78868	-2326.97533	-53.15586	437.64436	-2492.93756	238.12160	435.98283	-2339.57734	-39.91157	225.19189	-2579.60204	224.53699	222.81906	
51	0.500	-2368.13018	78.88852	932.13541	-2409.87082	165.36930	625.06003	-2361.83106	-2.60987	637.66001	-2418.84733	118.72416	335.64033	-2483.77662	167.19804	310.10043	-2663.13868	153.87513	106.30392	-2649.60146	86.41371	120.98001	-2626.84389	117.99006	74.20304	-2324.37237	25.29449	335.19642	-2382.15331	14.89308	71.95922	-2405.17852	80.86556	83.61353	-2431.55811	35.70762	103.77964	-2343.71970	58.72375	67.02277	-2675.58513	116.23091	155.83118	-2295.08142	83.25990	382.57904	-2487.47145	18.47679	679.32500	-2498.78613	59.54275	965.45490	-2505.33523	86.32668	673.82873	-2486.06742	62.21580	771.86508	-2321.06477	-55.77946	438.54246	-2478.94516	237.71698	434.32388	-2336.71005	-42.93623	224.03957	-2562.61294	225.22201	222.69853	
52	0.510	-2358.85490	79.70431	933.10922	-2398.98547	164.58691	623.44951	-2352.98488	-3.85682	640.33172	-2402.09069	119.19486	334.63953	-2466.81818	167.29579	308.67291	-2649.53700	155.31348	109.41962	-2636.44452	87.64343	123.26312	-2615.15183	118.94058	75.59266	-2322.34937	21.68285	335.60402	-2381.11458	12.77692	71.55808	-2404.78067	78.46285	84.01887	-2430.61792	32.82482	103.76244	-2343.05408	57.05458	66.88185	-2660.61122	117.91412	159.06627	-2292.71017	79.89339	382.01597	-2478.12855	20.10657	682.02059	-2489.83602	61.16926	965.60023	-2495.26768	88.09950	674.31823	-2476.23285	65.12113	772.21529	-2315.80298	-58.66725	439.38781	-2465.08510	237.23158	433.32668	-2334.37340	-46.05013	222.98744	-2545.88197	225.91433	223.17802	
53	0.520	-2349.73949	80.60254	934.38007	-2388.16006	163.61470	622.44178	-2344.40416	-5.31423	643.00268	-2385.73578	119.41711	334.49649	-2450.15495	167.31903	308.06351	-2635.60335	156.91193	112.56373	-2622.75410	89.03929	125.47920	-2602.62650	120.36174	77.26542	-2320.86438	17.85854	336.06634	-2380.17051	10.77860	71.22497	-2404.34266	76.20773	84.49520	-2429.80793	30.14402	103.78541	-2342.39959	55.45793	66.79282	-2645.54307	119.52851	162.11696	-2290.66197	76.19684	381.48652	-2468.91502	21.43084	684.82556	-2481.00086	62.95889	966.07393	-2485.25732	89.56382	675.25332	-2466.53036	67.71278	772.88923	-2311.28907	-61.83340	440.18372	-2451.31674	236.66511	433.10771	-2332.66545	-49.24022	222.07262	-2529.42775	226.61140	224.36987	
54	0.530	-2340.77956	81.58183	935.96370	-2377.38793	162.44001	622.08138	-2336.11147	-6.99541	645.66945	-2369.78128	119.37275	335.27008	-2433.76967	167.26773	308.32999	-2621.27247	158.66577	115.72618	-2608.44326	90.60205	127.59913	-2589.15471	122.28148	79.23403	-2319.94295	13.86639	336.60897	-2379.33244	8.94209	70.99165	-2403.85779	74.14367	85.05700	-2429.13218	27.72924	103.87492	-2341.75944	53.96383	66.76577	-2630.33120	121.03966	164.94799	-2288.97655	72.21421	381.02812	-2459.84254	22.44255	687.73727	-2472.27180	64.91162	966.89827	-2475.30568	90.71380	676.65605	-2456.96490	69.95913	773.90971	-2307.55513	-65.24919	440.94240	-2437.57252	236.03167	433.71858	-2331.63479	-52.47047	221.32946	-2513.24478	227.30759	226.32575	
55	0.540	-2331.95999	82.63109	937.84922	-2366.66306	161.06581	622.36725	-2328.11772	-8.89532	648.32447	-2354.19572	119.06315	336.95510	-2417.62088	167.14917	309.46825	-2606.49462	160.55667	118.88669	-2593.45851	92.31924	129.59266	-2574.67777	124.68740	81.48540	-2319.56709	9.78243	337.25562	-2378.60577	7.30953	70.88889	-2403.32105	72.31007	85.71445	-2428.58400	25.63945	104.05817	-2341.13678	52.60163	66.80774	-2614.92529	122.41852	167.52988	-2287.67012	68.03026	380.68053	-2450.92108	23.16186	690.73823	-2463.63210	67.00974	968.06912	-2465.41671	91.57100	678.50923	-2447.53756	71.84829	775.27350	-2304.57449	-68.84961	441.68172	-2423.76991	235.35693	435.15102	-2331.28338	-55.68753	220.78610	-2497.30304	227.99582	229.03653	
56	0.550	-2323.25809	83.73075	940.00164	-2355.98235	159.50844	623.25833	-2320.42566	-10.99271	650.95528	-2338.92331	118.50687	339.49353	-2401.64852	166.97642	311.42185	-2591.23121	162.56015	122.01536	-2577.77741	94.17128	131.43268	-2559.18588	127.53236	83.98468	-2319.68318	5.70075	338.02384	-2377.98998	5.91516	70.94144	-2402.72866	70.73748	86.47245	-2428.14802	23.92096	104.35899	-2340.53433	51.39549	66.92188	-2599.27448	123.65139	169.84052	-2286.73303	63.75353	380.47808	-2442.16059	23.63155	693.79715	-2455.05979	69.22067	969.55912	-2455.59782	92.17916	680.76107	-2438.24780	73.38624	776.95403	-2302.27516	-72.54457	442.42132	-2409.82469	234.67382	437.34602	-2331.57273	-58.82874	220.46115	-2481.54716	228.66997	232.43730	
